<?xml version="1.0" encoding="UTF-8" standalone="no"?>
<!-- Generator: Adobe Illustrator 15.0.0, SVG Export Plug-In . SVG Version: 6.00 Build 0)  -->

<svg
   version="1.1"
   width="52.235px"
   height="52.235px"
   viewBox="0 0 52.235 52.235"
   xmlns="http://www.w3.org/2000/svg"
   xmlns:svg="http://www.w3.org/2000/svg">
<path
   d="m 44.617444,7.6724584 c -10.186003,-10.212 -26.720003,-10.237 -36.9340023,-0.053 -10.2140004,10.1849996 -10.2380004,26.7229996 -0.056,36.9369996 10.1859993,10.215 26.7279993,10.236 36.9370023,0.051 10.214,-10.184 10.24,-26.718 0.053,-36.9349996 z"
   id="path1-33"
   style="fill:CurrentColor" />



<path
   d="M 41.916528,21.108077 C 41.038643,19.73767 39.809399,18.524912 38.263827,17.501744 35.275722,15.529594 31.352031,14.441512 27.21299,14.441512 a 22.737419,22.737419 0 0 0 -4.066914,0.358572 13.666974,13.666974 0 0 0 -2.794393,-2.074157 c -5.427017,-2.722266 -9.931843,-0.07007 -9.931843,-0.07007 0,0 4.182317,3.556876 3.500204,6.667596 -1.871172,1.92063 -2.890219,4.234866 -2.888158,6.645958 -0.0021,2.457459 1.011834,4.770664 2.885067,6.692325 0.67593,3.115872 -3.505357,6.663474 -3.505357,6.663474 0,0 4.500705,2.662505 9.926692,-0.0577 1.018016,-0.562588 1.978331,-1.277673 2.796454,-2.066945 a 23.070232,23.070232 0 0 0 4.067944,0.357543 c 4.140071,0.0052 8.066854,-1.08087 11.055989,-3.048898 1.543511,-1.021108 2.774816,-2.228714 3.654762,-3.600151 0.977831,-1.523934 1.472414,-3.168422 1.471384,-4.877824 0.0031,-1.758861 -0.490462,-3.402318 -1.467263,-4.923161 z m -14.664383,13.38465 a 19.591665,19.591665 0 0 1 -5.048867,-0.653262 l -1.13445,1.092204 c -0.618229,0.597621 -1.339495,1.132389 -2.094765,1.558967 a 8.2842636,8.2842636 0 0 1 -2.964406,0.83976 c 0.05976,-0.103038 0.106129,-0.198863 0.16074,-0.301901 1.139601,-2.094765 1.450776,-3.977271 0.924251,-5.65164 -1.860868,-1.467263 -2.97471,-3.342556 -2.97471,-5.388893 0.001,-4.690295 5.884506,-8.492401 13.139419,-8.49034 7.251822,0.0052 13.129116,3.808288 13.129116,8.502704 0,4.693386 -5.883476,8.494462 -13.136328,8.492401 z M 27.173835,24.09103 c -1.068505,0 -1.928874,0.874794 -1.935056,1.963907 0.0021,1.080869 0.870672,1.961845 1.931965,1.961845 1.064383,0.001 1.930934,-0.877885 1.930934,-1.961845 0.0021,-1.083961 -0.862429,-1.964937 -1.926813,-1.963907 z m -4.291536,1.959785 a 1.9278429,1.9618455 0 0 1 -1.927843,1.961846 1.9278429,1.9618455 0 0 1 -1.927843,-1.961846 1.9278429,1.9618455 0 0 1 1.927843,-1.961845 1.9278429,1.9618455 0 0 1 1.927843,1.961845 z m 10.507826,-1.953602 c -1.067475,-0.0052 -1.930935,0.874793 -1.932995,1.954632 0.0021,1.089113 0.86552,1.964937 1.931964,1.964937 1.065414,0.001 1.929904,-0.875824 1.929904,-1.958754 0.0021,-1.082931 -0.862429,-1.960815 -1.928873,-1.960815 z"
   fill="#c63129"
   id="path1-1"
   style="fill:#ffffff;" /></svg>
