<?xml version="1.0" encoding="utf-8"?>
<!-- Generator: Adobe Illustrator 15.0.0, SVG Export Plug-In . SVG Version: 6.00 Build 0)  -->
<!DOCTYPE svg PUBLIC "-//W3C//DTD SVG 1.1//EN" "http://www.w3.org/Graphics/SVG/1.1/DTD/svg11.dtd">
<svg version="1.1" id="timesheet_navbar" xmlns="http://www.w3.org/2000/svg" xmlns:xlink="http://www.w3.org/1999/xlink" x="0px"
	 y="0px" width="28.348px" height="28.348px" viewBox="0 0 28.348 28.348" enable-background="new 0 0 28.348 28.348"
	 xml:space="preserve">
<g>
	<path fill="#C63129" d="M19.7,12.549c-0.915-0.004-1.656,0.75-1.657,1.676c0.002,0.934,0.741,1.685,1.656,1.685
		c0.913,0.001,1.654-0.752,1.654-1.68C21.355,13.302,20.614,12.549,19.7,12.549z"/>
	<ellipse fill="#C63129" cx="9.039" cy="14.224" rx="1.653" ry="1.682"/>
	<path fill="#C63129" d="M14.371,12.544c-0.916,0-1.654,0.75-1.659,1.684c0.002,0.926,0.746,1.682,1.656,1.682
		c0.913,0.001,1.656-0.753,1.656-1.682C16.025,13.298,15.284,12.543,14.371,12.544z"/>
	<g>
		<path fill="#C63129" d="M27.01,9.986c-0.753-1.175-1.806-2.215-3.131-3.091c-2.562-1.691-5.926-2.624-9.475-2.625
			c-1.186-0.001-2.354,0.103-3.486,0.308c-0.705-0.681-1.527-1.292-2.396-1.778C3.87,0.466,0.008,2.74,0.008,2.74
			s3.585,3.049,3,5.716c-1.604,1.647-2.477,3.631-2.476,5.698C0.531,16.26,1.4,18.244,3.005,19.891
			c0.581,2.671-3.004,5.713-3.004,5.713s3.858,2.282,8.51-0.05c0.873-0.482,1.696-1.096,2.397-1.772
			c1.133,0.201,2.303,0.309,3.488,0.307c3.549,0.004,6.915-0.927,9.477-2.614c1.324-0.876,2.379-1.911,3.134-3.087
			c0.838-1.306,1.262-2.716,1.261-4.181C28.271,12.699,27.848,11.29,27.01,9.986z M14.438,21.461
			c-1.535-0.003-2.995-0.201-4.328-0.56l-0.973,0.936c-0.53,0.513-1.149,0.971-1.796,1.337c-0.856,0.42-1.703,0.648-2.541,0.72
			c0.051-0.088,0.091-0.171,0.138-0.259c0.977-1.796,1.243-3.41,0.792-4.845c-1.595-1.258-2.55-2.866-2.55-4.62
			c0.001-4.021,5.045-7.281,11.264-7.279C20.661,6.895,25.7,10.156,25.7,14.18C25.699,18.204,20.656,21.463,14.438,21.461z"/>
	</g>
</g>
</svg>
