<?xml version="1.0" encoding="UTF-8"?>
<svg version="1.1" width="32" height="32" viewBox="0 0 32 32" xmlns="http://www.w3.org/2000/svg">
 <path d="M30.576 11.258c-.852-1.33-2.045-2.507-3.545-3.5-2.9-1.914-6.708-2.97-10.725-2.97a22.067 22.067 0 0 0-3.947.348 13.264 13.264 0 0 0-2.712-2.013C4.38.481.008 3.055.008 3.055s4.059 3.452 3.397 6.471C1.589 11.39.6 13.636.602 15.976c-.002 2.385.982 4.63 2.8 6.495C4.058 25.495 0 28.938 0 28.938s4.368 2.584 9.634-.056c.988-.546 1.92-1.24 2.714-2.006a22.39 22.39 0 0 0 3.948.347c4.018.005 7.829-1.049 10.73-2.959 1.498-.991 2.693-2.163 3.547-3.494.949-1.479 1.429-3.075 1.428-4.734.003-1.707-.476-3.302-1.424-4.778zm-14.232 12.99a19.014 19.014 0 0 1-4.9-.634l-1.101 1.06c-.6.58-1.3 1.099-2.033 1.513a8.04 8.04 0 0 1-2.877.815c.058-.1.103-.193.156-.293 1.106-2.033 1.408-3.86.897-5.485-1.806-1.424-2.887-3.244-2.887-5.23.001-4.552 5.711-8.242 12.752-8.24 7.038.005 12.742 3.696 12.742 8.252 0 4.555-5.71 8.244-12.749 8.242zm-.076-10.095c-1.037 0-1.872.849-1.878 1.906.002 1.049.845 1.904 1.875 1.904 1.033.001 1.874-.852 1.874-1.904.002-1.052-.837-1.907-1.87-1.906zm-4.165 1.902a1.871 1.904 0 0 1-1.871 1.904 1.871 1.904 0 0 1-1.871-1.904 1.871 1.904 0 0 1 1.871-1.904 1.871 1.904 0 0 1 1.871 1.904zm10.198-1.896c-1.036-.005-1.874.849-1.876 1.897.002 1.057.84 1.907 1.875 1.907 1.034.001 1.873-.85 1.873-1.901.002-1.051-.837-1.903-1.872-1.903z" fill="#c63129" />
</svg>
